<?xml version="1.0" standalone="no"?>
<!DOCTYPE svg PUBLIC "-//W3C//DTD SVG 20010904//EN"
 "http://www.w3.org/TR/2001/REC-SVG-20010904/DTD/svg10.dtd">
<svg version="1.0" xmlns="http://www.w3.org/2000/svg"
 width="912.000000pt" height="1280.000000pt" viewBox="0 0 912.000000 1280.000000"
 preserveAspectRatio="xMidYMid meet">
<g transform="translate(0.000000,1280.000000) scale(0.100000,-0.100000)"
fill="#000000" stroke="none">
<path d="M6520 12779 c-470 -83 -811 -391 -927 -837 -34 -132 -42 -331 -19
-456 48 -250 141 -432 310 -604 129 -132 278 -223 456 -280 133 -42 239 -56
389 -49 418 18 784 262 961 640 284 605 -24 1325 -658 1537 -96 32 -301 71
-366 69 -22 -1 -88 -9 -146 -20z"/>
<path d="M5379 10016 c-25 -6 -58 -21 -73 -32 -14 -10 -296 -377 -625 -814
l-598 -795 -994 -5 c-947 -5 -996 -6 -1032 -24 -46 -23 -94 -79 -107 -126 -13
-47 -13 -485 1 -533 13 -49 63 -105 114 -128 38 -18 99 -19 1190 -19 1124 0
1151 1 1190 20 97 48 141 99 503 579 196 261 362 474 367 473 7 -1 12 -1382
15 -4079 4 -3402 7 -4085 19 -4118 42 -123 119 -231 213 -298 75 -53 114 -71
221 -97 101 -25 158 -25 255 0 205 54 348 181 416 369 21 56 21 66 26 2521 l5
2465 189 3 c145 2 191 -1 198 -10 4 -7 8 -1112 8 -2455 l0 -2442 25 -78 c59
-188 207 -321 414 -372 104 -26 157 -26 257 -1 198 49 342 172 415 355 l24 60
5 4100 5 4100 125 0 125 0 5 -1585 c5 -1477 6 -1588 22 -1629 43 -105 151
-203 261 -236 65 -19 199 -19 264 0 71 21 165 87 209 146 20 27 47 81 60 120
l24 71 0 1974 0 1974 -25 95 c-28 110 -46 148 -109 231 -71 95 -174 166 -306
210 -53 18 -128 19 -1655 21 -1257 2 -1610 -1 -1646 -11z"/>
<path d="M1286 6628 c-92 -194 -168 -357 -169 -363 -1 -13 716 -357 724 -347
17 19 339 707 335 717 -4 11 -693 345 -712 345 -5 0 -86 -159 -178 -352z"/>
<path d="M2088 5706 c-186 -100 -342 -186 -347 -191 -6 -7 57 -135 174 -354
101 -189 187 -347 192 -351 6 -7 681 346 705 369 9 8 -362 704 -377 707 -5 1
-162 -80 -347 -180z"/>
<path d="M16 5172 c-2 -4 29 -248 69 -542 41 -294 110 -800 155 -1125 44 -324
107 -783 140 -1020 33 -236 96 -695 140 -1020 44 -324 108 -784 140 -1021 33
-237 60 -434 60 -438 0 -3 609 -6 1354 -6 l1354 0 6 37 c3 21 72 515 151 1098
222 1621 243 1769 285 2075 22 157 85 616 140 1020 55 404 107 780 115 834 8
55 12 103 9 108 -3 4 -172 8 -375 8 -287 0 -371 -3 -374 -12 -2 -7 -29 -197
-60 -423 -31 -225 -87 -637 -125 -915 -116 -842 -297 -2160 -357 -2600 -31
-228 -60 -421 -66 -427 -14 -19 -1390 -19 -1404 -1 -6 7 -15 51 -21 98 -6 47
-70 515 -142 1040 -129 943 -163 1188 -299 2180 -38 278 -86 630 -107 783
l-38 277 -373 0 c-204 0 -374 -3 -377 -8z"/>
<path d="M1667 4497 c-10 -26 -131 -776 -126 -781 7 -8 782 -136 788 -131 5 5
131 750 131 776 0 13 -65 26 -377 78 -208 34 -385 64 -394 67 -9 3 -19 -1 -22
-9z"/>
</g>
</svg>
